<svg width="32" height="26" viewBox="0 0 32 26" fill="none" xmlns="http://www.w3.org/2000/svg">
<path d="M2.32616 24.25L8.81655 1.75H29.1738L22.6835 24.25H2.32616Z" stroke="#F78E00" stroke-opacity="0.71" stroke-width="3.5"/>
<path fill-rule="evenodd" clip-rule="evenodd" d="M15.4574 2.7413C15.3558 2.42108 15.1524 2.30939 14.8471 2.40622C14.6683 2.4629 14.5495 2.56617 14.4904 2.71603C14.4291 2.85843 14.4046 3.09157 14.4172 3.41542C14.4297 3.73928 14.4083 4.27884 14.3527 5.03409L13.8385 12.0572L7.63641 4.82828L1.53735 6.76256L14.0952 20.852L15.4101 3.94883C15.4271 3.79589 15.451 3.59981 15.4817 3.36059C15.5174 3.11156 15.5093 2.90514 15.4574 2.7413ZM24.3308 16.9534L23.2951 16.8219C23.0849 16.8047 22.9136 16.8378 22.7814 16.921C22.6499 16.9965 22.5784 17.1044 22.5669 17.2445C22.5358 17.6261 22.8706 17.8454 23.5714 17.9026C23.8673 17.9267 24.2751 17.9247 24.7947 17.8966C26.5851 17.7605 28.0309 17.1416 29.1319 16.04C30.2168 14.9449 30.8546 13.5155 31.0456 11.7517C31.1898 10.3682 30.8639 9.1267 30.0679 8.02707C29.6731 7.48537 29.1753 7.0058 28.5744 6.58837C27.9814 6.17157 27.4168 5.88643 26.8806 5.73295C26.3522 5.5801 25.8417 5.44831 25.3491 5.33757C24.8564 5.22683 23.4032 5.07299 20.9894 4.87605L16.5159 4.51107L15.1675 21.0382L21.1243 21.5242L22.4031 5.84971L23.3843 5.92975C24.8559 6.04982 26.0378 6.31086 26.93 6.71287C29.3122 7.7773 30.3602 9.53631 30.0738 11.9899C29.8968 13.5823 29.269 14.8401 28.1904 15.7633C27.1279 16.6799 25.8414 17.0766 24.3308 16.9534Z" fill="#242323"/>
</svg>
